<mxfile host="app.diagrams.net" modified="2024-07-06T08:17:39.603Z" agent="Mozilla/5.0 (Windows NT 10.0; Win64; x64) AppleWebKit/537.36 (KHTML, like Gecko) Chrome/126.0.0.0 Safari/537.36" etag="3Xp1chQ5MaAbR4SQHeih" version="24.6.4" type="github">
  <diagram id="C5RBs43oDa-KdzZeNtuy" name="Page-1">
    <mxGraphModel dx="5993" dy="3173" grid="1" gridSize="10" guides="1" tooltips="1" connect="1" arrows="1" fold="1" page="1" pageScale="1" pageWidth="2336" pageHeight="1654" background="none" math="0" shadow="0">
      <root>
        <mxCell id="WIyWlLk6GJQsqaUBKTNV-0" />
        <mxCell id="WIyWlLk6GJQsqaUBKTNV-1" parent="WIyWlLk6GJQsqaUBKTNV-0" />
        <mxCell id="iVtfHg-IncGxBC74AWmY-100" value="False" style="text;html=1;align=center;verticalAlign=middle;whiteSpace=wrap;rounded=0;" vertex="1" parent="WIyWlLk6GJQsqaUBKTNV-1">
          <mxGeometry y="1135" width="60" height="30" as="geometry" />
        </mxCell>
        <mxCell id="iVtfHg-IncGxBC74AWmY-125" value="False" style="text;html=1;align=center;verticalAlign=middle;whiteSpace=wrap;rounded=0;" vertex="1" parent="WIyWlLk6GJQsqaUBKTNV-1">
          <mxGeometry x="655" y="1205" width="60" height="30" as="geometry" />
        </mxCell>
        <mxCell id="iVtfHg-IncGxBC74AWmY-132" style="edgeStyle=orthogonalEdgeStyle;rounded=0;orthogonalLoop=1;jettySize=auto;html=1;exitX=0.5;exitY=1;exitDx=0;exitDy=0;" edge="1" parent="WIyWlLk6GJQsqaUBKTNV-1" source="iVtfHg-IncGxBC74AWmY-133" target="iVtfHg-IncGxBC74AWmY-136">
          <mxGeometry relative="1" as="geometry" />
        </mxCell>
        <mxCell id="iVtfHg-IncGxBC74AWmY-133" value="&lt;div&gt;show_name&lt;/div&gt;&lt;div&gt;(&lt;span style=&quot;background-color: initial;&quot;&gt;Stream inf, String studentID)&lt;/span&gt;&lt;/div&gt;" style="ellipse;whiteSpace=wrap;html=1;" vertex="1" parent="WIyWlLk6GJQsqaUBKTNV-1">
          <mxGeometry x="1309.82" y="790" width="100" height="60" as="geometry" />
        </mxCell>
        <mxCell id="iVtfHg-IncGxBC74AWmY-134" style="edgeStyle=orthogonalEdgeStyle;rounded=0;orthogonalLoop=1;jettySize=auto;html=1;exitX=1;exitY=0.5;exitDx=0;exitDy=0;entryX=0.5;entryY=0;entryDx=0;entryDy=0;" edge="1" parent="WIyWlLk6GJQsqaUBKTNV-1" source="iVtfHg-IncGxBC74AWmY-136" target="iVtfHg-IncGxBC74AWmY-138">
          <mxGeometry relative="1" as="geometry" />
        </mxCell>
        <mxCell id="iVtfHg-IncGxBC74AWmY-135" style="edgeStyle=orthogonalEdgeStyle;rounded=0;orthogonalLoop=1;jettySize=auto;html=1;exitX=0.5;exitY=1;exitDx=0;exitDy=0;entryX=0.5;entryY=0;entryDx=0;entryDy=0;" edge="1" parent="WIyWlLk6GJQsqaUBKTNV-1" source="iVtfHg-IncGxBC74AWmY-136" target="iVtfHg-IncGxBC74AWmY-143">
          <mxGeometry relative="1" as="geometry">
            <mxPoint x="1359.82" y="1190" as="targetPoint" />
          </mxGeometry>
        </mxCell>
        <mxCell id="iVtfHg-IncGxBC74AWmY-136" value="&lt;font style=&quot;font-size: 10px;&quot;&gt;last item reached&lt;/font&gt;&lt;div style=&quot;font-size: 10px;&quot;&gt;&lt;font style=&quot;font-size: 10px;&quot;&gt;?&lt;/font&gt;&lt;/div&gt;" style="rhombus;whiteSpace=wrap;html=1;" vertex="1" parent="WIyWlLk6GJQsqaUBKTNV-1">
          <mxGeometry x="1304.82" y="960" width="110" height="110" as="geometry" />
        </mxCell>
        <mxCell id="iVtfHg-IncGxBC74AWmY-137" value="for each line in inf" style="text;html=1;align=center;verticalAlign=middle;whiteSpace=wrap;rounded=0;" vertex="1" parent="WIyWlLk6GJQsqaUBKTNV-1">
          <mxGeometry x="1369.82" y="880" width="60" height="30" as="geometry" />
        </mxCell>
        <mxCell id="iVtfHg-IncGxBC74AWmY-138" value="exit" style="ellipse;whiteSpace=wrap;html=1;" vertex="1" parent="WIyWlLk6GJQsqaUBKTNV-1">
          <mxGeometry x="1469.82" y="1070" width="100" height="60" as="geometry" />
        </mxCell>
        <mxCell id="iVtfHg-IncGxBC74AWmY-139" value="True" style="text;html=1;align=center;verticalAlign=middle;whiteSpace=wrap;rounded=0;" vertex="1" parent="WIyWlLk6GJQsqaUBKTNV-1">
          <mxGeometry x="1429.82" y="990" width="60" height="30" as="geometry" />
        </mxCell>
        <mxCell id="iVtfHg-IncGxBC74AWmY-140" value="False" style="text;html=1;align=center;verticalAlign=middle;whiteSpace=wrap;rounded=0;" vertex="1" parent="WIyWlLk6GJQsqaUBKTNV-1">
          <mxGeometry x="1359.82" y="1110" width="60" height="30" as="geometry" />
        </mxCell>
        <mxCell id="iVtfHg-IncGxBC74AWmY-141" style="edgeStyle=orthogonalEdgeStyle;rounded=0;orthogonalLoop=1;jettySize=auto;html=1;exitX=1;exitY=0.5;exitDx=0;exitDy=0;entryX=0.5;entryY=0;entryDx=0;entryDy=0;" edge="1" parent="WIyWlLk6GJQsqaUBKTNV-1" source="iVtfHg-IncGxBC74AWmY-143" target="iVtfHg-IncGxBC74AWmY-145">
          <mxGeometry relative="1" as="geometry" />
        </mxCell>
        <mxCell id="iVtfHg-IncGxBC74AWmY-142" style="edgeStyle=orthogonalEdgeStyle;rounded=0;orthogonalLoop=1;jettySize=auto;html=1;exitX=0;exitY=0.5;exitDx=0;exitDy=0;entryX=0;entryY=0.5;entryDx=0;entryDy=0;" edge="1" parent="WIyWlLk6GJQsqaUBKTNV-1" source="iVtfHg-IncGxBC74AWmY-143" target="iVtfHg-IncGxBC74AWmY-136">
          <mxGeometry relative="1" as="geometry" />
        </mxCell>
        <mxCell id="iVtfHg-IncGxBC74AWmY-143" value="if line.split()[0]&lt;div&gt;==&lt;/div&gt;&lt;div&gt;studentID&lt;/div&gt;" style="rhombus;whiteSpace=wrap;html=1;" vertex="1" parent="WIyWlLk6GJQsqaUBKTNV-1">
          <mxGeometry x="1289.7299999999998" y="1190" width="140.09" height="140" as="geometry" />
        </mxCell>
        <mxCell id="iVtfHg-IncGxBC74AWmY-144" style="edgeStyle=orthogonalEdgeStyle;rounded=0;orthogonalLoop=1;jettySize=auto;html=1;exitX=0.5;exitY=1;exitDx=0;exitDy=0;entryX=0.5;entryY=0;entryDx=0;entryDy=0;" edge="1" parent="WIyWlLk6GJQsqaUBKTNV-1" source="iVtfHg-IncGxBC74AWmY-145" target="iVtfHg-IncGxBC74AWmY-146">
          <mxGeometry relative="1" as="geometry" />
        </mxCell>
        <mxCell id="iVtfHg-IncGxBC74AWmY-145" value="output:&lt;div&gt;line.split()[1].upper()&lt;/div&gt;" style="shape=parallelogram;perimeter=parallelogramPerimeter;whiteSpace=wrap;html=1;fixedSize=1;size=19.999999999999773;" vertex="1" parent="WIyWlLk6GJQsqaUBKTNV-1">
          <mxGeometry x="1479.9099999999999" y="1300" width="140" height="70" as="geometry" />
        </mxCell>
        <mxCell id="iVtfHg-IncGxBC74AWmY-146" value="exit" style="ellipse;whiteSpace=wrap;html=1;" vertex="1" parent="WIyWlLk6GJQsqaUBKTNV-1">
          <mxGeometry x="1499.9099999999999" y="1430" width="100" height="60" as="geometry" />
        </mxCell>
        <mxCell id="iVtfHg-IncGxBC74AWmY-147" value="True" style="text;html=1;align=center;verticalAlign=middle;whiteSpace=wrap;rounded=0;" vertex="1" parent="WIyWlLk6GJQsqaUBKTNV-1">
          <mxGeometry x="1449.9099999999999" y="1230" width="60" height="30" as="geometry" />
        </mxCell>
        <mxCell id="iVtfHg-IncGxBC74AWmY-148" value="False" style="text;html=1;align=center;verticalAlign=middle;whiteSpace=wrap;rounded=0;" vertex="1" parent="WIyWlLk6GJQsqaUBKTNV-1">
          <mxGeometry x="1259.9099999999999" y="1125" width="60" height="30" as="geometry" />
        </mxCell>
        <mxCell id="iVtfHg-IncGxBC74AWmY-149" value="" style="group" vertex="1" connectable="0" parent="WIyWlLk6GJQsqaUBKTNV-1">
          <mxGeometry x="10" y="10" width="120" height="494.5" as="geometry" />
        </mxCell>
        <mxCell id="iVtfHg-IncGxBC74AWmY-0" value="menu()" style="ellipse;whiteSpace=wrap;html=1;" vertex="1" parent="iVtfHg-IncGxBC74AWmY-149">
          <mxGeometry x="10" width="100" height="60" as="geometry" />
        </mxCell>
        <mxCell id="iVtfHg-IncGxBC74AWmY-4" style="edgeStyle=orthogonalEdgeStyle;rounded=0;orthogonalLoop=1;jettySize=auto;html=1;exitX=0.5;exitY=1;exitDx=0;exitDy=0;entryX=0.5;entryY=0;entryDx=0;entryDy=0;" edge="1" parent="iVtfHg-IncGxBC74AWmY-149" source="iVtfHg-IncGxBC74AWmY-1" target="iVtfHg-IncGxBC74AWmY-3">
          <mxGeometry relative="1" as="geometry" />
        </mxCell>
        <mxCell id="iVtfHg-IncGxBC74AWmY-1" value="&lt;div&gt;&lt;font style=&quot;font-size: 10px;&quot;&gt;output:&lt;/font&gt;&lt;/div&gt;&lt;font style=&quot;font-size: 10px;&quot;&gt;Menu header text&lt;/font&gt;&lt;div style=&quot;font-size: 10px;&quot;&gt;&lt;br&gt;&lt;/div&gt;" style="shape=parallelogram;perimeter=parallelogramPerimeter;whiteSpace=wrap;html=1;fixedSize=1;" vertex="1" parent="iVtfHg-IncGxBC74AWmY-149">
          <mxGeometry y="90" width="120" height="60" as="geometry" />
        </mxCell>
        <mxCell id="iVtfHg-IncGxBC74AWmY-2" style="edgeStyle=orthogonalEdgeStyle;rounded=0;orthogonalLoop=1;jettySize=auto;html=1;exitX=0.5;exitY=1;exitDx=0;exitDy=0;entryX=0.498;entryY=-0.03;entryDx=0;entryDy=0;entryPerimeter=0;" edge="1" parent="iVtfHg-IncGxBC74AWmY-149" source="iVtfHg-IncGxBC74AWmY-0" target="iVtfHg-IncGxBC74AWmY-1">
          <mxGeometry relative="1" as="geometry" />
        </mxCell>
        <mxCell id="iVtfHg-IncGxBC74AWmY-12" style="edgeStyle=orthogonalEdgeStyle;rounded=0;orthogonalLoop=1;jettySize=auto;html=1;exitX=0.5;exitY=1;exitDx=0;exitDy=0;entryX=0.5;entryY=0;entryDx=0;entryDy=0;" edge="1" parent="iVtfHg-IncGxBC74AWmY-149" source="iVtfHg-IncGxBC74AWmY-3" target="iVtfHg-IncGxBC74AWmY-8">
          <mxGeometry relative="1" as="geometry">
            <mxPoint x="59.75" y="420" as="targetPoint" />
          </mxGeometry>
        </mxCell>
        <mxCell id="iVtfHg-IncGxBC74AWmY-3" value="&lt;div&gt;&lt;font size=&quot;1&quot;&gt;output:&lt;/font&gt;&lt;/div&gt;&lt;font size=&quot;1&quot;&gt;option 1 prompt&lt;/font&gt;&lt;div&gt;&lt;font size=&quot;1&quot;&gt;&amp;nbsp;to option 9&lt;/font&gt;&lt;div&gt;&lt;font size=&quot;1&quot;&gt;&lt;br&gt;&lt;/font&gt;&lt;/div&gt;&lt;/div&gt;" style="shape=parallelogram;perimeter=parallelogramPerimeter;whiteSpace=wrap;html=1;fixedSize=1;" vertex="1" parent="iVtfHg-IncGxBC74AWmY-149">
          <mxGeometry y="200" width="120" height="60" as="geometry" />
        </mxCell>
        <mxCell id="iVtfHg-IncGxBC74AWmY-11" style="edgeStyle=orthogonalEdgeStyle;rounded=0;orthogonalLoop=1;jettySize=auto;html=1;exitX=0.5;exitY=1;exitDx=0;exitDy=0;entryX=0.5;entryY=0;entryDx=0;entryDy=0;" edge="1" parent="iVtfHg-IncGxBC74AWmY-149" source="iVtfHg-IncGxBC74AWmY-8" target="iVtfHg-IncGxBC74AWmY-10">
          <mxGeometry relative="1" as="geometry" />
        </mxCell>
        <mxCell id="iVtfHg-IncGxBC74AWmY-8" value="Input:&lt;div&gt;String option&lt;/div&gt;" style="shape=parallelogram;perimeter=parallelogramPerimeter;whiteSpace=wrap;html=1;fixedSize=1;" vertex="1" parent="iVtfHg-IncGxBC74AWmY-149">
          <mxGeometry y="320" width="120" height="60" as="geometry" />
        </mxCell>
        <mxCell id="iVtfHg-IncGxBC74AWmY-10" value="exit" style="ellipse;whiteSpace=wrap;html=1;" vertex="1" parent="iVtfHg-IncGxBC74AWmY-149">
          <mxGeometry x="10" y="434.5" width="100" height="60" as="geometry" />
        </mxCell>
        <mxCell id="iVtfHg-IncGxBC74AWmY-150" value="" style="group" vertex="1" connectable="0" parent="WIyWlLk6GJQsqaUBKTNV-1">
          <mxGeometry x="180" y="10" width="290" height="460" as="geometry" />
        </mxCell>
        <mxCell id="iVtfHg-IncGxBC74AWmY-15" style="edgeStyle=orthogonalEdgeStyle;rounded=0;orthogonalLoop=1;jettySize=auto;html=1;exitX=0.5;exitY=1;exitDx=0;exitDy=0;" edge="1" parent="iVtfHg-IncGxBC74AWmY-150" source="iVtfHg-IncGxBC74AWmY-13" target="iVtfHg-IncGxBC74AWmY-14">
          <mxGeometry relative="1" as="geometry" />
        </mxCell>
        <mxCell id="iVtfHg-IncGxBC74AWmY-13" value="displayFile&lt;div&gt;(&lt;span style=&quot;background-color: initial;&quot;&gt;Stream inf)&lt;/span&gt;&lt;/div&gt;" style="ellipse;whiteSpace=wrap;html=1;" vertex="1" parent="iVtfHg-IncGxBC74AWmY-150">
          <mxGeometry x="30" width="100" height="60" as="geometry" />
        </mxCell>
        <mxCell id="iVtfHg-IncGxBC74AWmY-19" style="edgeStyle=orthogonalEdgeStyle;rounded=0;orthogonalLoop=1;jettySize=auto;html=1;exitX=1;exitY=0.5;exitDx=0;exitDy=0;entryX=0.5;entryY=0;entryDx=0;entryDy=0;" edge="1" parent="iVtfHg-IncGxBC74AWmY-150" source="iVtfHg-IncGxBC74AWmY-14" target="iVtfHg-IncGxBC74AWmY-18">
          <mxGeometry relative="1" as="geometry" />
        </mxCell>
        <mxCell id="iVtfHg-IncGxBC74AWmY-21" style="edgeStyle=orthogonalEdgeStyle;rounded=0;orthogonalLoop=1;jettySize=auto;html=1;exitX=0.5;exitY=1;exitDx=0;exitDy=0;" edge="1" parent="iVtfHg-IncGxBC74AWmY-150" source="iVtfHg-IncGxBC74AWmY-14" target="iVtfHg-IncGxBC74AWmY-20">
          <mxGeometry relative="1" as="geometry" />
        </mxCell>
        <mxCell id="iVtfHg-IncGxBC74AWmY-14" value="&lt;font style=&quot;font-size: 10px;&quot;&gt;last item reached&lt;/font&gt;&lt;div style=&quot;font-size: 10px;&quot;&gt;&lt;font style=&quot;font-size: 10px;&quot;&gt;?&lt;/font&gt;&lt;/div&gt;" style="rhombus;whiteSpace=wrap;html=1;" vertex="1" parent="iVtfHg-IncGxBC74AWmY-150">
          <mxGeometry x="25" y="170" width="110" height="110" as="geometry" />
        </mxCell>
        <mxCell id="iVtfHg-IncGxBC74AWmY-16" value="for each line in inf" style="text;html=1;align=center;verticalAlign=middle;whiteSpace=wrap;rounded=0;" vertex="1" parent="iVtfHg-IncGxBC74AWmY-150">
          <mxGeometry x="90" y="90" width="60" height="30" as="geometry" />
        </mxCell>
        <mxCell id="iVtfHg-IncGxBC74AWmY-18" value="exit" style="ellipse;whiteSpace=wrap;html=1;" vertex="1" parent="iVtfHg-IncGxBC74AWmY-150">
          <mxGeometry x="190" y="280" width="100" height="60" as="geometry" />
        </mxCell>
        <mxCell id="iVtfHg-IncGxBC74AWmY-22" style="edgeStyle=orthogonalEdgeStyle;rounded=0;orthogonalLoop=1;jettySize=auto;html=1;exitX=0;exitY=0.5;exitDx=0;exitDy=0;entryX=0;entryY=0.5;entryDx=0;entryDy=0;" edge="1" parent="iVtfHg-IncGxBC74AWmY-150" source="iVtfHg-IncGxBC74AWmY-20" target="iVtfHg-IncGxBC74AWmY-14">
          <mxGeometry relative="1" as="geometry">
            <Array as="points">
              <mxPoint y="430" />
              <mxPoint y="225" />
            </Array>
          </mxGeometry>
        </mxCell>
        <mxCell id="iVtfHg-IncGxBC74AWmY-20" value="output: line" style="shape=parallelogram;perimeter=parallelogramPerimeter;whiteSpace=wrap;html=1;fixedSize=1;" vertex="1" parent="iVtfHg-IncGxBC74AWmY-150">
          <mxGeometry x="20" y="400" width="120" height="60" as="geometry" />
        </mxCell>
        <mxCell id="iVtfHg-IncGxBC74AWmY-23" value="True" style="text;html=1;align=center;verticalAlign=middle;whiteSpace=wrap;rounded=0;" vertex="1" parent="iVtfHg-IncGxBC74AWmY-150">
          <mxGeometry x="150" y="200" width="60" height="30" as="geometry" />
        </mxCell>
        <mxCell id="iVtfHg-IncGxBC74AWmY-24" value="False" style="text;html=1;align=center;verticalAlign=middle;whiteSpace=wrap;rounded=0;" vertex="1" parent="iVtfHg-IncGxBC74AWmY-150">
          <mxGeometry x="80" y="320" width="60" height="30" as="geometry" />
        </mxCell>
        <mxCell id="iVtfHg-IncGxBC74AWmY-151" value="" style="group" vertex="1" connectable="0" parent="WIyWlLk6GJQsqaUBKTNV-1">
          <mxGeometry x="540" y="10" width="290" height="460" as="geometry" />
        </mxCell>
        <mxCell id="iVtfHg-IncGxBC74AWmY-26" style="edgeStyle=orthogonalEdgeStyle;rounded=0;orthogonalLoop=1;jettySize=auto;html=1;exitX=0.5;exitY=1;exitDx=0;exitDy=0;" edge="1" parent="iVtfHg-IncGxBC74AWmY-151" source="iVtfHg-IncGxBC74AWmY-27" target="iVtfHg-IncGxBC74AWmY-30">
          <mxGeometry relative="1" as="geometry" />
        </mxCell>
        <mxCell id="iVtfHg-IncGxBC74AWmY-27" value="&lt;div&gt;show_record&lt;/div&gt;&lt;div&gt;(&lt;span style=&quot;background-color: initial;&quot;&gt;Stream inf)&lt;/span&gt;&lt;/div&gt;" style="ellipse;whiteSpace=wrap;html=1;" vertex="1" parent="iVtfHg-IncGxBC74AWmY-151">
          <mxGeometry x="30" width="100" height="60" as="geometry" />
        </mxCell>
        <mxCell id="iVtfHg-IncGxBC74AWmY-28" style="edgeStyle=orthogonalEdgeStyle;rounded=0;orthogonalLoop=1;jettySize=auto;html=1;exitX=1;exitY=0.5;exitDx=0;exitDy=0;entryX=0.5;entryY=0;entryDx=0;entryDy=0;" edge="1" parent="iVtfHg-IncGxBC74AWmY-151" source="iVtfHg-IncGxBC74AWmY-30" target="iVtfHg-IncGxBC74AWmY-32">
          <mxGeometry relative="1" as="geometry" />
        </mxCell>
        <mxCell id="iVtfHg-IncGxBC74AWmY-29" style="edgeStyle=orthogonalEdgeStyle;rounded=0;orthogonalLoop=1;jettySize=auto;html=1;exitX=0.5;exitY=1;exitDx=0;exitDy=0;" edge="1" parent="iVtfHg-IncGxBC74AWmY-151" source="iVtfHg-IncGxBC74AWmY-30" target="iVtfHg-IncGxBC74AWmY-34">
          <mxGeometry relative="1" as="geometry" />
        </mxCell>
        <mxCell id="iVtfHg-IncGxBC74AWmY-30" value="&lt;font style=&quot;font-size: 10px;&quot;&gt;last item reached&lt;/font&gt;&lt;div style=&quot;font-size: 10px;&quot;&gt;&lt;font style=&quot;font-size: 10px;&quot;&gt;?&lt;/font&gt;&lt;/div&gt;" style="rhombus;whiteSpace=wrap;html=1;" vertex="1" parent="iVtfHg-IncGxBC74AWmY-151">
          <mxGeometry x="25" y="170" width="110" height="110" as="geometry" />
        </mxCell>
        <mxCell id="iVtfHg-IncGxBC74AWmY-31" value="for each line in inf" style="text;html=1;align=center;verticalAlign=middle;whiteSpace=wrap;rounded=0;" vertex="1" parent="iVtfHg-IncGxBC74AWmY-151">
          <mxGeometry x="90" y="90" width="60" height="30" as="geometry" />
        </mxCell>
        <mxCell id="iVtfHg-IncGxBC74AWmY-32" value="exit" style="ellipse;whiteSpace=wrap;html=1;" vertex="1" parent="iVtfHg-IncGxBC74AWmY-151">
          <mxGeometry x="190" y="280" width="100" height="60" as="geometry" />
        </mxCell>
        <mxCell id="iVtfHg-IncGxBC74AWmY-33" style="edgeStyle=orthogonalEdgeStyle;rounded=0;orthogonalLoop=1;jettySize=auto;html=1;exitX=0;exitY=0.5;exitDx=0;exitDy=0;entryX=0;entryY=0.5;entryDx=0;entryDy=0;" edge="1" parent="iVtfHg-IncGxBC74AWmY-151" source="iVtfHg-IncGxBC74AWmY-34" target="iVtfHg-IncGxBC74AWmY-30">
          <mxGeometry relative="1" as="geometry">
            <Array as="points">
              <mxPoint y="430" />
              <mxPoint y="225" />
            </Array>
          </mxGeometry>
        </mxCell>
        <mxCell id="iVtfHg-IncGxBC74AWmY-34" value="&lt;font style=&quot;font-size: 10px;&quot;&gt;output: StudentID&lt;/font&gt;&lt;div style=&quot;font-size: 10px;&quot;&gt;&lt;font style=&quot;font-size: 10px;&quot;&gt;and Name&lt;/font&gt;&lt;/div&gt;" style="shape=parallelogram;perimeter=parallelogramPerimeter;whiteSpace=wrap;html=1;fixedSize=1;" vertex="1" parent="iVtfHg-IncGxBC74AWmY-151">
          <mxGeometry x="20" y="400" width="120" height="60" as="geometry" />
        </mxCell>
        <mxCell id="iVtfHg-IncGxBC74AWmY-35" value="True" style="text;html=1;align=center;verticalAlign=middle;whiteSpace=wrap;rounded=0;" vertex="1" parent="iVtfHg-IncGxBC74AWmY-151">
          <mxGeometry x="150" y="200" width="60" height="30" as="geometry" />
        </mxCell>
        <mxCell id="iVtfHg-IncGxBC74AWmY-36" value="False" style="text;html=1;align=center;verticalAlign=middle;whiteSpace=wrap;rounded=0;" vertex="1" parent="iVtfHg-IncGxBC74AWmY-151">
          <mxGeometry x="80" y="320" width="60" height="30" as="geometry" />
        </mxCell>
        <mxCell id="iVtfHg-IncGxBC74AWmY-152" value="" style="group" vertex="1" connectable="0" parent="WIyWlLk6GJQsqaUBKTNV-1">
          <mxGeometry x="850" y="10" width="340" height="680" as="geometry" />
        </mxCell>
        <mxCell id="iVtfHg-IncGxBC74AWmY-47" style="edgeStyle=orthogonalEdgeStyle;rounded=0;orthogonalLoop=1;jettySize=auto;html=1;exitX=0.5;exitY=1;exitDx=0;exitDy=0;" edge="1" parent="iVtfHg-IncGxBC74AWmY-152" source="iVtfHg-IncGxBC74AWmY-48" target="iVtfHg-IncGxBC74AWmY-51">
          <mxGeometry relative="1" as="geometry" />
        </mxCell>
        <mxCell id="iVtfHg-IncGxBC74AWmY-48" value="&lt;div&gt;show_mark&lt;/div&gt;&lt;div&gt;(&lt;span style=&quot;background-color: initial;&quot;&gt;Stream inf, String studentID)&lt;/span&gt;&lt;/div&gt;" style="ellipse;whiteSpace=wrap;html=1;" vertex="1" parent="iVtfHg-IncGxBC74AWmY-152">
          <mxGeometry x="49.91000000000008" width="100" height="60" as="geometry" />
        </mxCell>
        <mxCell id="iVtfHg-IncGxBC74AWmY-49" style="edgeStyle=orthogonalEdgeStyle;rounded=0;orthogonalLoop=1;jettySize=auto;html=1;exitX=1;exitY=0.5;exitDx=0;exitDy=0;entryX=0.5;entryY=0;entryDx=0;entryDy=0;" edge="1" parent="iVtfHg-IncGxBC74AWmY-152" source="iVtfHg-IncGxBC74AWmY-51" target="iVtfHg-IncGxBC74AWmY-53">
          <mxGeometry relative="1" as="geometry" />
        </mxCell>
        <mxCell id="iVtfHg-IncGxBC74AWmY-50" style="edgeStyle=orthogonalEdgeStyle;rounded=0;orthogonalLoop=1;jettySize=auto;html=1;exitX=0.5;exitY=1;exitDx=0;exitDy=0;entryX=0.5;entryY=0;entryDx=0;entryDy=0;" edge="1" parent="iVtfHg-IncGxBC74AWmY-152" source="iVtfHg-IncGxBC74AWmY-51" target="iVtfHg-IncGxBC74AWmY-58">
          <mxGeometry relative="1" as="geometry">
            <mxPoint x="99.91000000000008" y="399.9999999999999" as="targetPoint" />
          </mxGeometry>
        </mxCell>
        <mxCell id="iVtfHg-IncGxBC74AWmY-51" value="&lt;font style=&quot;font-size: 10px;&quot;&gt;last item reached&lt;/font&gt;&lt;div style=&quot;font-size: 10px;&quot;&gt;&lt;font style=&quot;font-size: 10px;&quot;&gt;?&lt;/font&gt;&lt;/div&gt;" style="rhombus;whiteSpace=wrap;html=1;" vertex="1" parent="iVtfHg-IncGxBC74AWmY-152">
          <mxGeometry x="44.91000000000008" y="170" width="110" height="110" as="geometry" />
        </mxCell>
        <mxCell id="iVtfHg-IncGxBC74AWmY-52" value="for each line in inf" style="text;html=1;align=center;verticalAlign=middle;whiteSpace=wrap;rounded=0;" vertex="1" parent="iVtfHg-IncGxBC74AWmY-152">
          <mxGeometry x="109.91000000000008" y="90" width="60" height="30" as="geometry" />
        </mxCell>
        <mxCell id="iVtfHg-IncGxBC74AWmY-53" value="exit" style="ellipse;whiteSpace=wrap;html=1;" vertex="1" parent="iVtfHg-IncGxBC74AWmY-152">
          <mxGeometry x="209.91000000000008" y="280" width="100" height="60" as="geometry" />
        </mxCell>
        <mxCell id="iVtfHg-IncGxBC74AWmY-56" value="True" style="text;html=1;align=center;verticalAlign=middle;whiteSpace=wrap;rounded=0;" vertex="1" parent="iVtfHg-IncGxBC74AWmY-152">
          <mxGeometry x="169.91000000000008" y="200" width="60" height="30" as="geometry" />
        </mxCell>
        <mxCell id="iVtfHg-IncGxBC74AWmY-57" value="False" style="text;html=1;align=center;verticalAlign=middle;whiteSpace=wrap;rounded=0;" vertex="1" parent="iVtfHg-IncGxBC74AWmY-152">
          <mxGeometry x="99.91000000000008" y="320" width="60" height="30" as="geometry" />
        </mxCell>
        <mxCell id="iVtfHg-IncGxBC74AWmY-61" style="edgeStyle=orthogonalEdgeStyle;rounded=0;orthogonalLoop=1;jettySize=auto;html=1;exitX=1;exitY=0.5;exitDx=0;exitDy=0;entryX=0.5;entryY=0;entryDx=0;entryDy=0;" edge="1" parent="iVtfHg-IncGxBC74AWmY-152" source="iVtfHg-IncGxBC74AWmY-58" target="iVtfHg-IncGxBC74AWmY-59">
          <mxGeometry relative="1" as="geometry" />
        </mxCell>
        <mxCell id="iVtfHg-IncGxBC74AWmY-64" style="edgeStyle=orthogonalEdgeStyle;rounded=0;orthogonalLoop=1;jettySize=auto;html=1;exitX=0;exitY=0.5;exitDx=0;exitDy=0;entryX=0;entryY=0.5;entryDx=0;entryDy=0;" edge="1" parent="iVtfHg-IncGxBC74AWmY-152" source="iVtfHg-IncGxBC74AWmY-58" target="iVtfHg-IncGxBC74AWmY-51">
          <mxGeometry relative="1" as="geometry" />
        </mxCell>
        <mxCell id="iVtfHg-IncGxBC74AWmY-58" value="if line.split()[0]&lt;div&gt;==&lt;/div&gt;&lt;div&gt;studentID&lt;/div&gt;" style="rhombus;whiteSpace=wrap;html=1;" vertex="1" parent="iVtfHg-IncGxBC74AWmY-152">
          <mxGeometry x="29.819999999999936" y="400" width="140.09" height="140" as="geometry" />
        </mxCell>
        <mxCell id="iVtfHg-IncGxBC74AWmY-63" style="edgeStyle=orthogonalEdgeStyle;rounded=0;orthogonalLoop=1;jettySize=auto;html=1;exitX=0.5;exitY=1;exitDx=0;exitDy=0;entryX=0.5;entryY=0;entryDx=0;entryDy=0;" edge="1" parent="iVtfHg-IncGxBC74AWmY-152" source="iVtfHg-IncGxBC74AWmY-59" target="iVtfHg-IncGxBC74AWmY-62">
          <mxGeometry relative="1" as="geometry" />
        </mxCell>
        <mxCell id="iVtfHg-IncGxBC74AWmY-59" value="output:&lt;div&gt;line.split()[2]&lt;/div&gt;" style="shape=parallelogram;perimeter=parallelogramPerimeter;whiteSpace=wrap;html=1;fixedSize=1;size=19.999999999999773;" vertex="1" parent="iVtfHg-IncGxBC74AWmY-152">
          <mxGeometry x="220" y="510" width="120" height="60" as="geometry" />
        </mxCell>
        <mxCell id="iVtfHg-IncGxBC74AWmY-62" value="exit" style="ellipse;whiteSpace=wrap;html=1;" vertex="1" parent="iVtfHg-IncGxBC74AWmY-152">
          <mxGeometry x="229.91000000000008" y="620" width="100" height="60" as="geometry" />
        </mxCell>
        <mxCell id="iVtfHg-IncGxBC74AWmY-65" value="True" style="text;html=1;align=center;verticalAlign=middle;whiteSpace=wrap;rounded=0;" vertex="1" parent="iVtfHg-IncGxBC74AWmY-152">
          <mxGeometry x="190" y="440" width="60" height="30" as="geometry" />
        </mxCell>
        <mxCell id="iVtfHg-IncGxBC74AWmY-66" value="False" style="text;html=1;align=center;verticalAlign=middle;whiteSpace=wrap;rounded=0;" vertex="1" parent="iVtfHg-IncGxBC74AWmY-152">
          <mxGeometry y="335" width="60" height="30" as="geometry" />
        </mxCell>
        <mxCell id="iVtfHg-IncGxBC74AWmY-153" value="" style="group" vertex="1" connectable="0" parent="WIyWlLk6GJQsqaUBKTNV-1">
          <mxGeometry x="1240" y="10" width="360" height="700" as="geometry" />
        </mxCell>
        <mxCell id="iVtfHg-IncGxBC74AWmY-67" style="edgeStyle=orthogonalEdgeStyle;rounded=0;orthogonalLoop=1;jettySize=auto;html=1;exitX=0.5;exitY=1;exitDx=0;exitDy=0;" edge="1" parent="iVtfHg-IncGxBC74AWmY-153" source="iVtfHg-IncGxBC74AWmY-68" target="iVtfHg-IncGxBC74AWmY-71">
          <mxGeometry relative="1" as="geometry" />
        </mxCell>
        <mxCell id="iVtfHg-IncGxBC74AWmY-68" value="&lt;div&gt;show_name&lt;/div&gt;&lt;div&gt;(&lt;span style=&quot;background-color: initial;&quot;&gt;Stream inf, String studentID)&lt;/span&gt;&lt;/div&gt;" style="ellipse;whiteSpace=wrap;html=1;" vertex="1" parent="iVtfHg-IncGxBC74AWmY-153">
          <mxGeometry x="49.91000000000008" width="100" height="60" as="geometry" />
        </mxCell>
        <mxCell id="iVtfHg-IncGxBC74AWmY-69" style="edgeStyle=orthogonalEdgeStyle;rounded=0;orthogonalLoop=1;jettySize=auto;html=1;exitX=1;exitY=0.5;exitDx=0;exitDy=0;entryX=0.5;entryY=0;entryDx=0;entryDy=0;" edge="1" parent="iVtfHg-IncGxBC74AWmY-153" source="iVtfHg-IncGxBC74AWmY-71" target="iVtfHg-IncGxBC74AWmY-73">
          <mxGeometry relative="1" as="geometry" />
        </mxCell>
        <mxCell id="iVtfHg-IncGxBC74AWmY-70" style="edgeStyle=orthogonalEdgeStyle;rounded=0;orthogonalLoop=1;jettySize=auto;html=1;exitX=0.5;exitY=1;exitDx=0;exitDy=0;entryX=0.5;entryY=0;entryDx=0;entryDy=0;" edge="1" parent="iVtfHg-IncGxBC74AWmY-153" source="iVtfHg-IncGxBC74AWmY-71" target="iVtfHg-IncGxBC74AWmY-78">
          <mxGeometry relative="1" as="geometry">
            <mxPoint x="99.91000000000008" y="399.9999999999999" as="targetPoint" />
          </mxGeometry>
        </mxCell>
        <mxCell id="iVtfHg-IncGxBC74AWmY-71" value="&lt;font style=&quot;font-size: 10px;&quot;&gt;last item reached&lt;/font&gt;&lt;div style=&quot;font-size: 10px;&quot;&gt;&lt;font style=&quot;font-size: 10px;&quot;&gt;?&lt;/font&gt;&lt;/div&gt;" style="rhombus;whiteSpace=wrap;html=1;" vertex="1" parent="iVtfHg-IncGxBC74AWmY-153">
          <mxGeometry x="44.91000000000008" y="170" width="110" height="110" as="geometry" />
        </mxCell>
        <mxCell id="iVtfHg-IncGxBC74AWmY-72" value="for each line in inf" style="text;html=1;align=center;verticalAlign=middle;whiteSpace=wrap;rounded=0;" vertex="1" parent="iVtfHg-IncGxBC74AWmY-153">
          <mxGeometry x="109.91000000000008" y="90" width="60" height="30" as="geometry" />
        </mxCell>
        <mxCell id="iVtfHg-IncGxBC74AWmY-73" value="exit" style="ellipse;whiteSpace=wrap;html=1;" vertex="1" parent="iVtfHg-IncGxBC74AWmY-153">
          <mxGeometry x="209.91000000000008" y="280" width="100" height="60" as="geometry" />
        </mxCell>
        <mxCell id="iVtfHg-IncGxBC74AWmY-74" value="True" style="text;html=1;align=center;verticalAlign=middle;whiteSpace=wrap;rounded=0;" vertex="1" parent="iVtfHg-IncGxBC74AWmY-153">
          <mxGeometry x="169.91000000000008" y="200" width="60" height="30" as="geometry" />
        </mxCell>
        <mxCell id="iVtfHg-IncGxBC74AWmY-75" value="False" style="text;html=1;align=center;verticalAlign=middle;whiteSpace=wrap;rounded=0;" vertex="1" parent="iVtfHg-IncGxBC74AWmY-153">
          <mxGeometry x="99.91000000000008" y="320" width="60" height="30" as="geometry" />
        </mxCell>
        <mxCell id="iVtfHg-IncGxBC74AWmY-76" style="edgeStyle=orthogonalEdgeStyle;rounded=0;orthogonalLoop=1;jettySize=auto;html=1;exitX=1;exitY=0.5;exitDx=0;exitDy=0;entryX=0.5;entryY=0;entryDx=0;entryDy=0;" edge="1" parent="iVtfHg-IncGxBC74AWmY-153" source="iVtfHg-IncGxBC74AWmY-78" target="iVtfHg-IncGxBC74AWmY-80">
          <mxGeometry relative="1" as="geometry" />
        </mxCell>
        <mxCell id="iVtfHg-IncGxBC74AWmY-77" style="edgeStyle=orthogonalEdgeStyle;rounded=0;orthogonalLoop=1;jettySize=auto;html=1;exitX=0;exitY=0.5;exitDx=0;exitDy=0;entryX=0;entryY=0.5;entryDx=0;entryDy=0;" edge="1" parent="iVtfHg-IncGxBC74AWmY-153" source="iVtfHg-IncGxBC74AWmY-78" target="iVtfHg-IncGxBC74AWmY-71">
          <mxGeometry relative="1" as="geometry" />
        </mxCell>
        <mxCell id="iVtfHg-IncGxBC74AWmY-78" value="if line.split()[0]&lt;div&gt;==&lt;/div&gt;&lt;div&gt;studentID&lt;/div&gt;" style="rhombus;whiteSpace=wrap;html=1;" vertex="1" parent="iVtfHg-IncGxBC74AWmY-153">
          <mxGeometry x="29.819999999999936" y="400" width="140.09" height="140" as="geometry" />
        </mxCell>
        <mxCell id="iVtfHg-IncGxBC74AWmY-79" style="edgeStyle=orthogonalEdgeStyle;rounded=0;orthogonalLoop=1;jettySize=auto;html=1;exitX=0.5;exitY=1;exitDx=0;exitDy=0;entryX=0.5;entryY=0;entryDx=0;entryDy=0;" edge="1" parent="iVtfHg-IncGxBC74AWmY-153" source="iVtfHg-IncGxBC74AWmY-80" target="iVtfHg-IncGxBC74AWmY-81">
          <mxGeometry relative="1" as="geometry" />
        </mxCell>
        <mxCell id="iVtfHg-IncGxBC74AWmY-80" value="output:&lt;div&gt;line.split()[1].upper()&lt;/div&gt;" style="shape=parallelogram;perimeter=parallelogramPerimeter;whiteSpace=wrap;html=1;fixedSize=1;size=19.999999999999773;" vertex="1" parent="iVtfHg-IncGxBC74AWmY-153">
          <mxGeometry x="220" y="510" width="140" height="70" as="geometry" />
        </mxCell>
        <mxCell id="iVtfHg-IncGxBC74AWmY-81" value="exit" style="ellipse;whiteSpace=wrap;html=1;" vertex="1" parent="iVtfHg-IncGxBC74AWmY-153">
          <mxGeometry x="240" y="640" width="100" height="60" as="geometry" />
        </mxCell>
        <mxCell id="iVtfHg-IncGxBC74AWmY-82" value="True" style="text;html=1;align=center;verticalAlign=middle;whiteSpace=wrap;rounded=0;" vertex="1" parent="iVtfHg-IncGxBC74AWmY-153">
          <mxGeometry x="190" y="440" width="60" height="30" as="geometry" />
        </mxCell>
        <mxCell id="iVtfHg-IncGxBC74AWmY-83" value="False" style="text;html=1;align=center;verticalAlign=middle;whiteSpace=wrap;rounded=0;" vertex="1" parent="iVtfHg-IncGxBC74AWmY-153">
          <mxGeometry y="335" width="60" height="30" as="geometry" />
        </mxCell>
        <mxCell id="iVtfHg-IncGxBC74AWmY-154" value="" style="group" vertex="1" connectable="0" parent="WIyWlLk6GJQsqaUBKTNV-1">
          <mxGeometry x="60" y="770" width="385" height="850" as="geometry" />
        </mxCell>
        <mxCell id="iVtfHg-IncGxBC74AWmY-102" style="edgeStyle=orthogonalEdgeStyle;rounded=0;orthogonalLoop=1;jettySize=auto;html=1;exitX=0.5;exitY=1;exitDx=0;exitDy=0;entryX=0.5;entryY=0;entryDx=0;entryDy=0;" edge="1" parent="iVtfHg-IncGxBC74AWmY-154" source="iVtfHg-IncGxBC74AWmY-85" target="iVtfHg-IncGxBC74AWmY-101">
          <mxGeometry relative="1" as="geometry" />
        </mxCell>
        <mxCell id="iVtfHg-IncGxBC74AWmY-85" value="&lt;div&gt;max_mark&lt;/div&gt;&lt;div&gt;(&lt;span style=&quot;background-color: initial;&quot;&gt;Stream inf)&lt;/span&gt;&lt;/div&gt;" style="ellipse;whiteSpace=wrap;html=1;" vertex="1" parent="iVtfHg-IncGxBC74AWmY-154">
          <mxGeometry x="90.03000000000009" width="100" height="60" as="geometry" />
        </mxCell>
        <mxCell id="iVtfHg-IncGxBC74AWmY-87" style="edgeStyle=orthogonalEdgeStyle;rounded=0;orthogonalLoop=1;jettySize=auto;html=1;exitX=0.5;exitY=1;exitDx=0;exitDy=0;entryX=0.5;entryY=0;entryDx=0;entryDy=0;" edge="1" parent="iVtfHg-IncGxBC74AWmY-154" source="iVtfHg-IncGxBC74AWmY-88" target="iVtfHg-IncGxBC74AWmY-95">
          <mxGeometry relative="1" as="geometry">
            <mxPoint x="140.0300000000001" y="530" as="targetPoint" />
          </mxGeometry>
        </mxCell>
        <mxCell id="iVtfHg-IncGxBC74AWmY-105" style="edgeStyle=orthogonalEdgeStyle;rounded=0;orthogonalLoop=1;jettySize=auto;html=1;exitX=1;exitY=0.5;exitDx=0;exitDy=0;" edge="1" parent="iVtfHg-IncGxBC74AWmY-154" source="iVtfHg-IncGxBC74AWmY-88" target="iVtfHg-IncGxBC74AWmY-104">
          <mxGeometry relative="1" as="geometry" />
        </mxCell>
        <mxCell id="iVtfHg-IncGxBC74AWmY-88" value="&lt;font style=&quot;font-size: 10px;&quot;&gt;last item reached&lt;/font&gt;&lt;div style=&quot;font-size: 10px;&quot;&gt;&lt;font style=&quot;font-size: 10px;&quot;&gt;?&lt;/font&gt;&lt;/div&gt;" style="rhombus;whiteSpace=wrap;html=1;" vertex="1" parent="iVtfHg-IncGxBC74AWmY-154">
          <mxGeometry x="85.03000000000009" y="300" width="110" height="110" as="geometry" />
        </mxCell>
        <mxCell id="iVtfHg-IncGxBC74AWmY-89" value="for each line in inf" style="text;html=1;align=center;verticalAlign=middle;whiteSpace=wrap;rounded=0;" vertex="1" parent="iVtfHg-IncGxBC74AWmY-154">
          <mxGeometry x="145.00000000000009" y="240" width="60" height="30" as="geometry" />
        </mxCell>
        <mxCell id="iVtfHg-IncGxBC74AWmY-90" value="exit" style="ellipse;whiteSpace=wrap;html=1;" vertex="1" parent="iVtfHg-IncGxBC74AWmY-154">
          <mxGeometry x="260.0000000000001" y="570" width="100" height="60" as="geometry" />
        </mxCell>
        <mxCell id="iVtfHg-IncGxBC74AWmY-91" value="True" style="text;html=1;align=center;verticalAlign=middle;whiteSpace=wrap;rounded=0;" vertex="1" parent="iVtfHg-IncGxBC74AWmY-154">
          <mxGeometry x="210.0300000000001" y="330" width="60" height="30" as="geometry" />
        </mxCell>
        <mxCell id="iVtfHg-IncGxBC74AWmY-92" value="False" style="text;html=1;align=center;verticalAlign=middle;whiteSpace=wrap;rounded=0;" vertex="1" parent="iVtfHg-IncGxBC74AWmY-154">
          <mxGeometry x="140.0300000000001" y="450" width="60" height="30" as="geometry" />
        </mxCell>
        <mxCell id="iVtfHg-IncGxBC74AWmY-108" style="edgeStyle=orthogonalEdgeStyle;rounded=0;orthogonalLoop=1;jettySize=auto;html=1;exitX=0.5;exitY=1;exitDx=0;exitDy=0;entryX=0.5;entryY=0;entryDx=0;entryDy=0;" edge="1" parent="iVtfHg-IncGxBC74AWmY-154" source="iVtfHg-IncGxBC74AWmY-95" target="iVtfHg-IncGxBC74AWmY-107">
          <mxGeometry relative="1" as="geometry" />
        </mxCell>
        <mxCell id="iVtfHg-IncGxBC74AWmY-110" style="edgeStyle=orthogonalEdgeStyle;rounded=0;orthogonalLoop=1;jettySize=auto;html=1;exitX=0;exitY=0.5;exitDx=0;exitDy=0;entryX=0;entryY=0.5;entryDx=0;entryDy=0;" edge="1" parent="iVtfHg-IncGxBC74AWmY-154" source="iVtfHg-IncGxBC74AWmY-95" target="iVtfHg-IncGxBC74AWmY-88">
          <mxGeometry relative="1" as="geometry">
            <Array as="points">
              <mxPoint y="600" />
              <mxPoint y="355" />
            </Array>
          </mxGeometry>
        </mxCell>
        <mxCell id="iVtfHg-IncGxBC74AWmY-95" value="if line.split()[2]&lt;div&gt;&amp;gt;&lt;/div&gt;&lt;div&gt;maximum_marks&lt;/div&gt;" style="rhombus;whiteSpace=wrap;html=1;" vertex="1" parent="iVtfHg-IncGxBC74AWmY-154">
          <mxGeometry x="69.93999999999994" y="530" width="140.09" height="140" as="geometry" />
        </mxCell>
        <mxCell id="iVtfHg-IncGxBC74AWmY-99" value="True" style="text;html=1;align=center;verticalAlign=middle;whiteSpace=wrap;rounded=0;" vertex="1" parent="iVtfHg-IncGxBC74AWmY-154">
          <mxGeometry x="130.03" y="700" width="60" height="30" as="geometry" />
        </mxCell>
        <mxCell id="iVtfHg-IncGxBC74AWmY-103" style="edgeStyle=orthogonalEdgeStyle;rounded=0;orthogonalLoop=1;jettySize=auto;html=1;exitX=0.5;exitY=1;exitDx=0;exitDy=0;" edge="1" parent="iVtfHg-IncGxBC74AWmY-154" source="iVtfHg-IncGxBC74AWmY-101" target="iVtfHg-IncGxBC74AWmY-88">
          <mxGeometry relative="1" as="geometry" />
        </mxCell>
        <mxCell id="iVtfHg-IncGxBC74AWmY-101" value="&lt;font size=&quot;1&quot;&gt;Initialize maximum_marks to 0&lt;/font&gt;" style="rounded=0;whiteSpace=wrap;html=1;" vertex="1" parent="iVtfHg-IncGxBC74AWmY-154">
          <mxGeometry x="79.99000000000001" y="140" width="120" height="60" as="geometry" />
        </mxCell>
        <mxCell id="iVtfHg-IncGxBC74AWmY-106" style="edgeStyle=orthogonalEdgeStyle;rounded=0;orthogonalLoop=1;jettySize=auto;html=1;exitX=0.5;exitY=1;exitDx=0;exitDy=0;entryX=0.5;entryY=0;entryDx=0;entryDy=0;" edge="1" parent="iVtfHg-IncGxBC74AWmY-154" source="iVtfHg-IncGxBC74AWmY-104" target="iVtfHg-IncGxBC74AWmY-90">
          <mxGeometry relative="1" as="geometry" />
        </mxCell>
        <mxCell id="iVtfHg-IncGxBC74AWmY-104" value="output:&lt;div&gt;maximum_marks&lt;/div&gt;" style="shape=parallelogram;perimeter=parallelogramPerimeter;whiteSpace=wrap;html=1;fixedSize=1;" vertex="1" parent="iVtfHg-IncGxBC74AWmY-154">
          <mxGeometry x="235" y="411.25" width="150" height="77.5" as="geometry" />
        </mxCell>
        <mxCell id="iVtfHg-IncGxBC74AWmY-109" style="edgeStyle=orthogonalEdgeStyle;rounded=0;orthogonalLoop=1;jettySize=auto;html=1;exitX=0;exitY=0.5;exitDx=0;exitDy=0;entryX=0;entryY=0.5;entryDx=0;entryDy=0;" edge="1" parent="iVtfHg-IncGxBC74AWmY-154" source="iVtfHg-IncGxBC74AWmY-107" target="iVtfHg-IncGxBC74AWmY-88">
          <mxGeometry relative="1" as="geometry">
            <Array as="points">
              <mxPoint x="60" y="820" />
              <mxPoint x="60" y="310" />
              <mxPoint x="85" y="310" />
            </Array>
          </mxGeometry>
        </mxCell>
        <mxCell id="iVtfHg-IncGxBC74AWmY-107" value="maximum_marks = line.split()[2]" style="rounded=0;whiteSpace=wrap;html=1;" vertex="1" parent="iVtfHg-IncGxBC74AWmY-154">
          <mxGeometry x="79.99000000000001" y="790" width="120" height="60" as="geometry" />
        </mxCell>
        <mxCell id="iVtfHg-IncGxBC74AWmY-155" value="" style="group" vertex="1" connectable="0" parent="WIyWlLk6GJQsqaUBKTNV-1">
          <mxGeometry x="620" y="770" width="385" height="850" as="geometry" />
        </mxCell>
        <mxCell id="iVtfHg-IncGxBC74AWmY-112" style="edgeStyle=orthogonalEdgeStyle;rounded=0;orthogonalLoop=1;jettySize=auto;html=1;exitX=0.5;exitY=1;exitDx=0;exitDy=0;entryX=0.5;entryY=0;entryDx=0;entryDy=0;" edge="1" parent="iVtfHg-IncGxBC74AWmY-155" source="iVtfHg-IncGxBC74AWmY-113" target="iVtfHg-IncGxBC74AWmY-127">
          <mxGeometry relative="1" as="geometry" />
        </mxCell>
        <mxCell id="iVtfHg-IncGxBC74AWmY-113" value="&lt;div&gt;min_mark&lt;/div&gt;&lt;div&gt;(&lt;span style=&quot;background-color: initial;&quot;&gt;Stream inf)&lt;/span&gt;&lt;/div&gt;" style="ellipse;whiteSpace=wrap;html=1;" vertex="1" parent="iVtfHg-IncGxBC74AWmY-155">
          <mxGeometry x="90.03000000000009" width="100" height="60" as="geometry" />
        </mxCell>
        <mxCell id="iVtfHg-IncGxBC74AWmY-114" style="edgeStyle=orthogonalEdgeStyle;rounded=0;orthogonalLoop=1;jettySize=auto;html=1;exitX=0.5;exitY=1;exitDx=0;exitDy=0;entryX=0.5;entryY=0;entryDx=0;entryDy=0;" edge="1" parent="iVtfHg-IncGxBC74AWmY-155" source="iVtfHg-IncGxBC74AWmY-116" target="iVtfHg-IncGxBC74AWmY-123">
          <mxGeometry relative="1" as="geometry">
            <mxPoint x="140.0300000000001" y="530" as="targetPoint" />
          </mxGeometry>
        </mxCell>
        <mxCell id="iVtfHg-IncGxBC74AWmY-115" style="edgeStyle=orthogonalEdgeStyle;rounded=0;orthogonalLoop=1;jettySize=auto;html=1;exitX=1;exitY=0.5;exitDx=0;exitDy=0;" edge="1" parent="iVtfHg-IncGxBC74AWmY-155" source="iVtfHg-IncGxBC74AWmY-116" target="iVtfHg-IncGxBC74AWmY-129">
          <mxGeometry relative="1" as="geometry" />
        </mxCell>
        <mxCell id="iVtfHg-IncGxBC74AWmY-116" value="&lt;font style=&quot;font-size: 10px;&quot;&gt;last item reached&lt;/font&gt;&lt;div style=&quot;font-size: 10px;&quot;&gt;&lt;font style=&quot;font-size: 10px;&quot;&gt;?&lt;/font&gt;&lt;/div&gt;" style="rhombus;whiteSpace=wrap;html=1;" vertex="1" parent="iVtfHg-IncGxBC74AWmY-155">
          <mxGeometry x="85.03000000000009" y="300" width="110" height="110" as="geometry" />
        </mxCell>
        <mxCell id="iVtfHg-IncGxBC74AWmY-117" value="for each line in inf" style="text;html=1;align=center;verticalAlign=middle;whiteSpace=wrap;rounded=0;" vertex="1" parent="iVtfHg-IncGxBC74AWmY-155">
          <mxGeometry x="145.0000000000001" y="240" width="60" height="30" as="geometry" />
        </mxCell>
        <mxCell id="iVtfHg-IncGxBC74AWmY-118" value="exit" style="ellipse;whiteSpace=wrap;html=1;" vertex="1" parent="iVtfHg-IncGxBC74AWmY-155">
          <mxGeometry x="260.0000000000001" y="570" width="100" height="60" as="geometry" />
        </mxCell>
        <mxCell id="iVtfHg-IncGxBC74AWmY-119" value="True" style="text;html=1;align=center;verticalAlign=middle;whiteSpace=wrap;rounded=0;" vertex="1" parent="iVtfHg-IncGxBC74AWmY-155">
          <mxGeometry x="210.0300000000001" y="330" width="60" height="30" as="geometry" />
        </mxCell>
        <mxCell id="iVtfHg-IncGxBC74AWmY-120" value="False" style="text;html=1;align=center;verticalAlign=middle;whiteSpace=wrap;rounded=0;" vertex="1" parent="iVtfHg-IncGxBC74AWmY-155">
          <mxGeometry x="140.0300000000001" y="450" width="60" height="30" as="geometry" />
        </mxCell>
        <mxCell id="iVtfHg-IncGxBC74AWmY-121" style="edgeStyle=orthogonalEdgeStyle;rounded=0;orthogonalLoop=1;jettySize=auto;html=1;exitX=0.5;exitY=1;exitDx=0;exitDy=0;entryX=0.5;entryY=0;entryDx=0;entryDy=0;" edge="1" parent="iVtfHg-IncGxBC74AWmY-155" source="iVtfHg-IncGxBC74AWmY-123" target="iVtfHg-IncGxBC74AWmY-131">
          <mxGeometry relative="1" as="geometry" />
        </mxCell>
        <mxCell id="iVtfHg-IncGxBC74AWmY-122" style="edgeStyle=orthogonalEdgeStyle;rounded=0;orthogonalLoop=1;jettySize=auto;html=1;exitX=0;exitY=0.5;exitDx=0;exitDy=0;entryX=0;entryY=0.5;entryDx=0;entryDy=0;" edge="1" parent="iVtfHg-IncGxBC74AWmY-155" source="iVtfHg-IncGxBC74AWmY-123" target="iVtfHg-IncGxBC74AWmY-116">
          <mxGeometry relative="1" as="geometry">
            <Array as="points">
              <mxPoint y="600" />
              <mxPoint y="355" />
            </Array>
          </mxGeometry>
        </mxCell>
        <mxCell id="iVtfHg-IncGxBC74AWmY-123" value="if line.split()[2]&lt;div&gt;&amp;lt;&lt;/div&gt;&lt;div&gt;minimum_marks&lt;/div&gt;" style="rhombus;whiteSpace=wrap;html=1;" vertex="1" parent="iVtfHg-IncGxBC74AWmY-155">
          <mxGeometry x="69.93999999999994" y="530" width="140.09" height="140" as="geometry" />
        </mxCell>
        <mxCell id="iVtfHg-IncGxBC74AWmY-124" value="True" style="text;html=1;align=center;verticalAlign=middle;whiteSpace=wrap;rounded=0;" vertex="1" parent="iVtfHg-IncGxBC74AWmY-155">
          <mxGeometry x="130.02999999999997" y="700" width="60" height="30" as="geometry" />
        </mxCell>
        <mxCell id="iVtfHg-IncGxBC74AWmY-126" style="edgeStyle=orthogonalEdgeStyle;rounded=0;orthogonalLoop=1;jettySize=auto;html=1;exitX=0.5;exitY=1;exitDx=0;exitDy=0;" edge="1" parent="iVtfHg-IncGxBC74AWmY-155" source="iVtfHg-IncGxBC74AWmY-127" target="iVtfHg-IncGxBC74AWmY-116">
          <mxGeometry relative="1" as="geometry" />
        </mxCell>
        <mxCell id="iVtfHg-IncGxBC74AWmY-127" value="&lt;font size=&quot;1&quot;&gt;Initialize minimum_marks to 0 and studentID to empty string&lt;/font&gt;" style="rounded=0;whiteSpace=wrap;html=1;" vertex="1" parent="iVtfHg-IncGxBC74AWmY-155">
          <mxGeometry x="79.99000000000001" y="140" width="120" height="60" as="geometry" />
        </mxCell>
        <mxCell id="iVtfHg-IncGxBC74AWmY-128" style="edgeStyle=orthogonalEdgeStyle;rounded=0;orthogonalLoop=1;jettySize=auto;html=1;exitX=0.5;exitY=1;exitDx=0;exitDy=0;entryX=0.5;entryY=0;entryDx=0;entryDy=0;" edge="1" parent="iVtfHg-IncGxBC74AWmY-155" source="iVtfHg-IncGxBC74AWmY-129" target="iVtfHg-IncGxBC74AWmY-118">
          <mxGeometry relative="1" as="geometry" />
        </mxCell>
        <mxCell id="iVtfHg-IncGxBC74AWmY-129" value="output:&lt;div&gt;minimum_marks and studentID&lt;/div&gt;" style="shape=parallelogram;perimeter=parallelogramPerimeter;whiteSpace=wrap;html=1;fixedSize=1;" vertex="1" parent="iVtfHg-IncGxBC74AWmY-155">
          <mxGeometry x="235" y="411.25" width="150" height="77.5" as="geometry" />
        </mxCell>
        <mxCell id="iVtfHg-IncGxBC74AWmY-130" style="edgeStyle=orthogonalEdgeStyle;rounded=0;orthogonalLoop=1;jettySize=auto;html=1;exitX=0;exitY=0.5;exitDx=0;exitDy=0;entryX=0;entryY=0.5;entryDx=0;entryDy=0;" edge="1" parent="iVtfHg-IncGxBC74AWmY-155" source="iVtfHg-IncGxBC74AWmY-131" target="iVtfHg-IncGxBC74AWmY-116">
          <mxGeometry relative="1" as="geometry">
            <Array as="points">
              <mxPoint x="60" y="820" />
              <mxPoint x="60" y="310" />
              <mxPoint x="85" y="310" />
            </Array>
          </mxGeometry>
        </mxCell>
        <mxCell id="iVtfHg-IncGxBC74AWmY-131" value="minimum_marks = line.split()[2]&lt;div&gt;and studentID = line.split()[0]&lt;/div&gt;" style="rounded=0;whiteSpace=wrap;html=1;" vertex="1" parent="iVtfHg-IncGxBC74AWmY-155">
          <mxGeometry x="79.99000000000001" y="790" width="120" height="60" as="geometry" />
        </mxCell>
      </root>
    </mxGraphModel>
  </diagram>
</mxfile>
